<?xml version="1.0" encoding="utf-8"?>
<!-- Generator: Adobe Illustrator 25.4.1, SVG Export Plug-In . SVG Version: 6.00 Build 0)  -->
<svg version="1.1" id="Capa_1" xmlns="http://www.w3.org/2000/svg" xmlns:xlink="http://www.w3.org/1999/xlink" x="0px" y="0px"
	 viewBox="0 0 92 80" style="enable-background:new 0 0 92 80;" xml:space="preserve">
<style type="text/css">
	.st0{fill:#787878;}
	.st1{fill:none;}
	.st2{fill:#0094FF;}
</style>
<path id="Icon_awesome-chart-area" class="st0" d="M63.9,49.4c0.5,0,0.9,0.4,0.9,0.9v3c0,0.5-0.4,0.9-0.9,0.9h-36
	c-0.5,0-0.9-0.4-0.9-0.9V26.7c0-0.5,0.4-0.9,0.9-0.9h3c0.5,0,0.9,0.4,0.9,0.9v22.7H63.9z M54.5,32.9L48.2,37L42,28.7
	c-0.3-0.4-0.9-0.5-1.2-0.2c-0.1,0.1-0.2,0.2-0.2,0.2l-6.4,10.7v7.7h28.3l-6.6-13.9C55.6,32.8,55,32.6,54.5,32.9
	C54.6,32.8,54.5,32.9,54.5,32.9z"/>
<g id="Polígono_3" transform="translate(261 1993)">
	<path class="st1" d="M-198.9-1993c4.3,0,8.3,2.3,10.4,6l16.1,28c2.1,3.7,2.1,8.3,0,12l-16.1,28c-2.1,3.7-6.1,6-10.4,6h-32.1
		c-4.3,0-8.3-2.3-10.4-6l-16.1-28c-2.1-3.7-2.1-8.3,0-12l16.1-28c2.1-3.7,6.1-6,10.4-6H-198.9z"/>
	<path class="st2" d="M-231.1-1988c-2.5,0-4.8,1.3-6.1,3.5l-16.1,28c-1.2,2.2-1.2,4.8,0,7l16.1,28c1.2,2.2,3.6,3.5,6.1,3.5h32.1
		c2.5,0,4.8-1.3,6.1-3.5l16.1-28c1.2-2.2,1.2-4.8,0-7l-16.1-28c-1.2-2.2-3.6-3.5-6.1-3.5H-231.1 M-231.1-1993h32.1
		c4.3,0,8.3,2.3,10.4,6l16.1,28c2.1,3.7,2.1,8.3,0,12l-16.1,28c-2.1,3.7-6.1,6-10.4,6h-32.1c-4.3,0-8.3-2.3-10.4-6l-16.1-28
		c-2.1-3.7-2.1-8.3,0-12l16.1-28C-239.3-1990.7-235.4-1993-231.1-1993z"/>
</g>
</svg>
