<svg xmlns="http://www.w3.org/2000/svg" width="92" height="80" viewBox="0 0 92 80">
  <g id="Grupo_136" data-name="Grupo 136" transform="translate(-78 -2162)">
    <path id="Icon_awesome-chalkboard-teacher" data-name="Icon awesome-chalkboard-teacher" d="M10.832,18.33a1.191,1.191,0,0,0-.368.057,6.869,6.869,0,0,1-2.132.36,6.875,6.875,0,0,1-2.132-.36,1.188,1.188,0,0,0-.367-.057A5.833,5.833,0,0,0,0,24.195a2.493,2.493,0,0,0,2.5,2.467H14.164a2.493,2.493,0,0,0,2.5-2.467A5.833,5.833,0,0,0,10.832,18.33Zm-2.5-1.666a5,5,0,1,0-5-5A5,5,0,0,0,8.332,16.664ZM30.828,0h-20a2.545,2.545,0,0,0-2.5,2.582V5a6.59,6.59,0,0,1,3.333.927V3.333h18.33v15H26.662V15H20V18.33h-3.97a6.637,6.637,0,0,1,2.067,3.333H30.828a2.545,2.545,0,0,0,2.5-2.582V2.582A2.545,2.545,0,0,0,30.828,0Z" transform="translate(107 2189)" fill="#fff"/>
    <g id="Polígono_5" data-name="Polígono 5" transform="translate(78 2162)" fill="none">
      <path d="M62.058,0a12,12,0,0,1,10.4,6.018l16.1,28a12,12,0,0,1,0,11.963l-16.1,28A12,12,0,0,1,62.058,80H29.942a12,12,0,0,1-10.4-6.018l-16.1-28a12,12,0,0,1,0-11.963l16.1-28A12,12,0,0,1,29.942,0Z" stroke="none"/>
      <path d="M 29.94233322143555 5 C 27.44439697265625 5 25.11913299560547 6.34521484375 23.87398529052734 8.51068115234375 L 7.77398681640625 36.51071548461914 C 6.536415100097656 38.66298294067383 6.536415100097656 41.33701705932617 7.77398681640625 43.48929977416992 L 23.87398529052734 71.48928070068359 C 25.11913299560547 73.65476989746094 27.44438171386719 75 29.94231796264648 75 L 62.05766677856445 75 C 64.55560302734375 75 66.88086700439453 73.65476989746094 68.12601470947266 71.48930358886719 L 84.22601318359375 43.48928451538086 C 85.46358489990234 41.33701705932617 85.46358489990234 38.66298294067383 84.22601318359375 36.51070022583008 L 68.12601470947266 8.510719299316406 C 66.88086700439453 6.345230102539062 64.55560302734375 5 62.05766677856445 5 L 29.94233322143555 5 M 29.94233322143555 0 L 62.05766677856445 0 C 66.3524169921875 0 70.31973266601562 2.295196533203125 72.46054840087891 6.018348693847656 L 88.560546875 34.01834869384766 C 90.69004821777344 37.72181701660156 90.69004821777344 42.27818298339844 88.560546875 45.98165130615234 L 72.46054840087891 73.98165130615234 C 70.31973266601562 77.70480346679688 66.3524169921875 80 62.05766677856445 80 L 29.94231796264648 80 C 25.64756774902344 80 21.68026733398438 77.70480346679688 19.53945159912109 73.98165130615234 L 3.439453125 45.98165130615234 C 1.309951782226562 42.27816772460938 1.309951782226562 37.72181701660156 3.439453125 34.01834869384766 L 19.53945159912109 6.018333435058594 C 21.68026733398438 2.295196533203125 25.6475830078125 0 29.94233322143555 0 Z" stroke="none" fill="#0094ff"/>
    </g>
  </g>
</svg>
