<?xml version="1.0" encoding="utf-8"?>
<!-- Generator: Adobe Illustrator 25.4.1, SVG Export Plug-In . SVG Version: 6.00 Build 0)  -->
<svg version="1.1" id="Capa_1" xmlns="http://www.w3.org/2000/svg" xmlns:xlink="http://www.w3.org/1999/xlink" x="0px" y="0px"
	 viewBox="0 0 92 80" style="enable-background:new 0 0 92 80;" xml:space="preserve">
<style type="text/css">
	.st0{fill:#787878;}
	.st1{fill:none;}
	.st2{fill:#0094FF;}
</style>
<path id="Icon_awesome-chalkboard-teacher" class="st0" d="M39.8,45.3c-0.1,0-0.2,0-0.4,0.1c-0.7,0.2-1.4,0.4-2.1,0.4
	c-0.7,0-1.4-0.1-2.1-0.4c-0.1,0-0.2-0.1-0.4-0.1c-3.2,0-5.8,2.6-5.8,5.8c0,0,0,0,0,0c0,1.4,1.1,2.5,2.5,2.5h11.7
	c1.4,0,2.5-1.1,2.5-2.5C45.7,48,43.1,45.3,39.8,45.3C39.9,45.3,39.8,45.3,39.8,45.3z M37.3,43.7c2.8,0,5-2.2,5-5c0-2.8-2.2-5-5-5
	c-2.8,0-5,2.2-5,5C32.3,41.4,34.6,43.7,37.3,43.7z M59.8,27h-20c-1.4,0-2.5,1.2-2.5,2.6V32c1.2,0,2.3,0.3,3.3,0.9v-2.6H59v15h-3.3
	V42H49v3.3h-4c1,0.9,1.7,2,2.1,3.3h12.7c1.4,0,2.5-1.2,2.5-2.6V29.6C62.3,28.2,61.2,27,59.8,27z"/>
<g id="Polígono_5" transform="translate(78 2162)">
	<path class="st1" d="M-15.9-2162c4.3,0,8.3,2.3,10.4,6l16.1,28c2.1,3.7,2.1,8.3,0,12l-16.1,28c-2.1,3.7-6.1,6-10.4,6h-32.1
		c-4.3,0-8.3-2.3-10.4-6l-16.1-28c-2.1-3.7-2.1-8.3,0-12l16.1-28c2.1-3.7,6.1-6,10.4-6H-15.9z"/>
	<path class="st2" d="M-48.1-2157c-2.5,0-4.8,1.3-6.1,3.5l-16.1,28c-1.2,2.2-1.2,4.8,0,7l16.1,28c1.2,2.2,3.6,3.5,6.1,3.5h32.1
		c2.5,0,4.8-1.3,6.1-3.5l16.1-28c1.2-2.2,1.2-4.8,0-7l-16.1-28c-1.2-2.2-3.6-3.5-6.1-3.5H-48.1 M-48.1-2162h32.1
		c4.3,0,8.3,2.3,10.4,6l16.1,28c2.1,3.7,2.1,8.3,0,12l-16.1,28c-2.1,3.7-6.1,6-10.4,6h-32.1c-4.3,0-8.3-2.3-10.4-6l-16.1-28
		c-2.1-3.7-2.1-8.3,0-12l16.1-28C-56.3-2159.7-52.4-2162-48.1-2162z"/>
</g>
</svg>
