<?xml version="1.0" encoding="utf-8"?>
<!-- Generator: Adobe Illustrator 25.4.1, SVG Export Plug-In . SVG Version: 6.00 Build 0)  -->
<svg version="1.1" id="Capa_1" xmlns="http://www.w3.org/2000/svg" xmlns:xlink="http://www.w3.org/1999/xlink" x="0px" y="0px"
	 viewBox="0 0 92 80" style="enable-background:new 0 0 92 80;" xml:space="preserve">
<style type="text/css">
	.st0{fill:none;}
	.st1{fill:#0094FF;}
	.st2{fill:#787878;}
</style>
<g id="Polígono_1" transform="translate(80 1822)">
	<path class="st0" d="M-17.9-1822c4.3,0,8.3,2.3,10.4,6l16.1,28c2.1,3.7,2.1,8.3,0,12l-16.1,28c-2.1,3.7-6.1,6-10.4,6h-32.1
		c-4.3,0-8.3-2.3-10.4-6l-16.1-28c-2.1-3.7-2.1-8.3,0-12l16.1-28c2.1-3.7,6.1-6,10.4-6H-17.9z"/>
	<path class="st1" d="M-50.1-1817c-2.5,0-4.8,1.3-6.1,3.5l-16.1,28c-1.2,2.2-1.2,4.8,0,7l16.1,28c1.2,2.2,3.6,3.5,6.1,3.5h32.1
		c2.5,0,4.8-1.3,6.1-3.5l16.1-28c1.2-2.2,1.2-4.8,0-7l-16.1-28c-1.2-2.2-3.6-3.5-6.1-3.5H-50.1 M-50.1-1822h32.1
		c4.3,0,8.3,2.3,10.4,6l16.1,28c2.1,3.7,2.1,8.3,0,12l-16.1,28c-2.1,3.7-6.1,6-10.4,6h-32.1c-4.3,0-8.3-2.3-10.4-6l-16.1-28
		c-2.1-3.7-2.1-8.3,0-12l16.1-28C-58.3-1819.7-54.4-1822-50.1-1822z"/>
</g>
<path id="Icon_awesome-code" class="st2" d="M44.1,53.3l-3.2-0.9c-0.3-0.1-0.5-0.4-0.4-0.8c0,0,0,0,0,0l7.1-24.5
	c0.1-0.3,0.4-0.5,0.8-0.4l3.2,0.9c0.3,0.1,0.5,0.4,0.4,0.8c0,0,0,0,0,0l-7.1,24.5C44.8,53.2,44.4,53.4,44.1,53.3
	C44.1,53.3,44.1,53.3,44.1,53.3L44.1,53.3z M38.2,47.5l2.3-2.4c0.2-0.3,0.2-0.6,0-0.9c0,0,0,0,0,0L35.7,40l4.7-4.1
	c0.3-0.2,0.3-0.6,0.1-0.9c0,0,0,0,0,0l-2.3-2.4c-0.2-0.3-0.6-0.3-0.9,0c0,0,0,0,0,0l-7.5,7c-0.3,0.2-0.3,0.6,0,0.9c0,0,0,0,0,0
	l7.5,7C37.5,47.7,37.9,47.7,38.2,47.5C38.2,47.5,38.2,47.5,38.2,47.5L38.2,47.5z M55.2,47.5l7.5-7c0.3-0.2,0.3-0.6,0-0.9
	c0,0,0,0,0,0l-7.5-7c-0.3-0.2-0.6-0.2-0.9,0l-2.3,2.4c-0.2,0.3-0.2,0.6,0,0.9c0,0,0,0,0,0l4.7,4.2l-4.7,4.2
	c-0.3,0.2-0.3,0.6-0.1,0.9c0,0,0,0,0,0l2.3,2.4C54.6,47.7,55,47.7,55.2,47.5C55.2,47.5,55.2,47.5,55.2,47.5L55.2,47.5z"/>
</svg>
