<?xml version="1.0" encoding="utf-8"?>
<!-- Generator: Adobe Illustrator 25.0.0, SVG Export Plug-In . SVG Version: 6.00 Build 0)  -->
<svg version="1.1" id="Capa_1" xmlns="http://www.w3.org/2000/svg" xmlns:xlink="http://www.w3.org/1999/xlink" x="0px" y="0px"
	 viewBox="0 0 579.61 245.89" style="enable-background:new 0 0 579.61 245.89;" xml:space="preserve">
<style type="text/css">
	.st0{fill:#BF1818;}
</style>
<g>
	<g>
		<path class="st0" d="M83.27,145.55h92.02v23.05h-95.5c-13.73,0-24.21-4.31-31.44-12.93c-7.23-8.62-10.85-20.62-10.85-35.99
			c0-15.37,3.62-27.36,10.85-35.99c7.23-8.62,17.71-12.93,31.44-12.93h95.5v23.05H83.27c-4.86,0-8.87,1.53-12.04,4.57
			c-1.48,1.41-3.38,4.69-5.7,9.85l-0.16,0.35h109.91v22H65.37l0.16,0.53c2.11,5.04,4.01,8.33,5.7,9.86
			C74.4,144.03,78.41,145.55,83.27,145.55z"/>
		<path class="st0" d="M303.41,70.76c18.05,0,30.46,7.39,37.22,22.17c3.38,7.39,5.07,16.31,5.07,26.75
			c0,21.24-6.55,35.66-19.64,43.29c-6.44,3.76-13.99,5.63-22.65,5.63h-87.42v39.07h-26.45V70.76H303.41z M299.93,144.14
			c6.12,0,10.77-2.46,13.94-7.39c2.74-4.23,4.11-9.91,4.11-17.07c0-7.15-1.37-12.85-4.11-17.07c-3.17-4.93-7.82-7.39-13.94-7.39
			h-83.94v48.92H299.93z"/>
		<path class="st0" d="M388.14,130.59c-8.23,0-14.91-2.67-20.03-8.01c-5.12-5.34-7.68-12.58-7.68-21.73
			c0-12.08,4.28-20.82,12.83-26.22c4.12-2.58,9.08-3.87,14.88-3.87h112.14v23.05H393.37c-5.81,0-8.71,2.46-8.71,7.39
			c0,4.93,2.9,7.39,8.71,7.39l83.94,0.18c8.23,0,14.91,2.7,20.03,8.09c5.12,5.4,7.68,12.67,7.68,21.82
			c0,12.32-4.28,21.06-12.83,26.22c-4.01,2.46-8.98,3.69-14.89,3.69H360.43v-23.05l111.65,0.18c5.81,0,8.71-2.52,8.71-7.57
			c0-4.92-2.9-7.39-8.71-7.39L388.14,130.59z"/>
		<path class="st0" d="M541.61,60.9h-26.45V37.5h26.45V60.9z M541.61,168.6h-26.45V70.76h26.45V168.6z"/>
	</g>
</g>
</svg>
