<svg xmlns="http://www.w3.org/2000/svg" width="92" height="80" viewBox="0 0 92 80">
  <g id="Grupo_134" data-name="Grupo 134" transform="translate(-77 -1993)">
    <path id="Icon_awesome-robot" data-name="Icon awesome-robot" d="M0,15.723v7.862A1.963,1.963,0,0,0,1.965,25.55H3.931V13.758H1.965A1.963,1.963,0,0,0,0,15.723ZM28.5,5.9H21.619V1.965a1.965,1.965,0,1,0-3.931,0V5.9H10.81A4.912,4.912,0,0,0,5.9,10.81V27.516a3.934,3.934,0,0,0,3.931,3.931H29.481a3.934,3.934,0,0,0,3.931-3.931V10.81A4.912,4.912,0,0,0,28.5,5.9ZM15.723,25.55H11.792V23.585h3.931Zm-1.965-7.37a2.457,2.457,0,1,1,2.457-2.457A2.456,2.456,0,0,1,13.758,18.18Zm7.862,7.37H17.689V23.585h3.931Zm5.9,0H23.585V23.585h3.931ZM25.55,18.18a2.457,2.457,0,1,1,2.457-2.457A2.456,2.456,0,0,1,25.55,18.18Zm11.792-4.422H35.377V25.55h1.965a1.963,1.963,0,0,0,1.965-1.965V15.723A1.963,1.963,0,0,0,37.343,13.758Z" transform="translate(103 2016.9)" fill="#fff"/>
    <g id="Polígono_4" data-name="Polígono 4" transform="translate(77 1993)" fill="none">
      <path d="M62.058,0a12,12,0,0,1,10.4,6.018l16.1,28a12,12,0,0,1,0,11.963l-16.1,28A12,12,0,0,1,62.058,80H29.942a12,12,0,0,1-10.4-6.018l-16.1-28a12,12,0,0,1,0-11.963l16.1-28A12,12,0,0,1,29.942,0Z" stroke="none"/>
      <path d="M 29.94233322143555 5 C 27.44439697265625 5 25.11913299560547 6.34521484375 23.87398529052734 8.51068115234375 L 7.77398681640625 36.51071548461914 C 6.536415100097656 38.66298294067383 6.536415100097656 41.33701705932617 7.77398681640625 43.48929977416992 L 23.87398529052734 71.48928070068359 C 25.11913299560547 73.65476989746094 27.44438171386719 75 29.94231796264648 75 L 62.05766677856445 75 C 64.55560302734375 75 66.88086700439453 73.65476989746094 68.12601470947266 71.48930358886719 L 84.22601318359375 43.48928451538086 C 85.46358489990234 41.33701705932617 85.46358489990234 38.66298294067383 84.22601318359375 36.51070022583008 L 68.12601470947266 8.510719299316406 C 66.88086700439453 6.345230102539062 64.55560302734375 5 62.05766677856445 5 L 29.94233322143555 5 M 29.94233322143555 0 L 62.05766677856445 0 C 66.3524169921875 0 70.31973266601562 2.295196533203125 72.46054840087891 6.018348693847656 L 88.560546875 34.01834869384766 C 90.69004821777344 37.72181701660156 90.69004821777344 42.27818298339844 88.560546875 45.98165130615234 L 72.46054840087891 73.98165130615234 C 70.31973266601562 77.70480346679688 66.3524169921875 80 62.05766677856445 80 L 29.94231796264648 80 C 25.64756774902344 80 21.68026733398438 77.70480346679688 19.53945159912109 73.98165130615234 L 3.439453125 45.98165130615234 C 1.309951782226562 42.27816772460938 1.309951782226562 37.72181701660156 3.439453125 34.01834869384766 L 19.53945159912109 6.018333435058594 C 21.68026733398438 2.295196533203125 25.6475830078125 0 29.94233322143555 0 Z" stroke="none" fill="#0094ff"/>
    </g>
  </g>
</svg>
