<?xml version="1.0" encoding="utf-8"?>
<!-- Generator: Adobe Illustrator 25.4.1, SVG Export Plug-In . SVG Version: 6.00 Build 0)  -->
<svg version="1.1" id="Capa_1" xmlns="http://www.w3.org/2000/svg" xmlns:xlink="http://www.w3.org/1999/xlink" x="0px" y="0px"
	 viewBox="0 0 92 80" style="enable-background:new 0 0 92 80;" xml:space="preserve">
<style type="text/css">
	.st0{fill:#787878;}
	.st1{fill:none;}
	.st2{fill:#0094FF;}
</style>
<path id="Icon_awesome-robot" class="st0" d="M26,39.6v7.9c0,1.1,0.9,2,2,2c0,0,0,0,0,0h2V37.7h-2C26.9,37.7,26,38.5,26,39.6
	C26,39.6,26,39.6,26,39.6z M54.5,29.8h-6.9v-3.9c0-1.1-0.9-2-2-2s-2,0.9-2,2v3.9h-6.9c-2.7,0-4.9,2.2-4.9,4.9v16.7
	c0,2.2,1.8,3.9,3.9,3.9h19.7c2.2,0,3.9-1.8,3.9-3.9V34.7C59.4,32,57.2,29.8,54.5,29.8z M41.7,49.5h-3.9v-2h3.9V49.5z M39.8,42.1
	c-1.4,0-2.5-1.1-2.5-2.5c0-1.4,1.1-2.5,2.5-2.5c1.4,0,2.5,1.1,2.5,2.5C42.2,41,41.1,42.1,39.8,42.1C39.8,42.1,39.8,42.1,39.8,42.1z
	 M47.6,49.5h-3.9v-2h3.9V49.5z M53.5,49.5h-3.9v-2h3.9L53.5,49.5z M51.5,42.1c-1.4,0-2.5-1.1-2.5-2.5s1.1-2.5,2.5-2.5
	c1.4,0,2.5,1.1,2.5,2.5C54,41,52.9,42.1,51.5,42.1C51.6,42.1,51.6,42.1,51.5,42.1z M63.3,37.7h-2v11.8h2c1.1,0,2-0.9,2-2
	c0,0,0,0,0,0v-7.9C65.3,38.5,64.4,37.7,63.3,37.7C63.3,37.7,63.3,37.7,63.3,37.7L63.3,37.7z"/>
<g id="Polígono_4" transform="translate(77 1993)">
	<path class="st1" d="M-14.9-1993c4.3,0,8.3,2.3,10.4,6l16.1,28c2.1,3.7,2.1,8.3,0,12l-16.1,28c-2.1,3.7-6.1,6-10.4,6h-32.1
		c-4.3,0-8.3-2.3-10.4-6l-16.1-28c-2.1-3.7-2.1-8.3,0-12l16.1-28c2.1-3.7,6.1-6,10.4-6H-14.9z"/>
	<path class="st2" d="M-47.1-1988c-2.5,0-4.8,1.3-6.1,3.5l-16.1,28c-1.2,2.2-1.2,4.8,0,7l16.1,28c1.2,2.2,3.6,3.5,6.1,3.5h32.1
		c2.5,0,4.8-1.3,6.1-3.5l16.1-28c1.2-2.2,1.2-4.8,0-7l-16.1-28c-1.2-2.2-3.6-3.5-6.1-3.5H-47.1 M-47.1-1993h32.1
		c4.3,0,8.3,2.3,10.4,6l16.1,28c2.1,3.7,2.1,8.3,0,12l-16.1,28c-2.1,3.7-6.1,6-10.4,6h-32.1c-4.3,0-8.3-2.3-10.4-6l-16.1-28
		c-2.1-3.7-2.1-8.3,0-12l16.1-28C-55.3-1990.7-51.4-1993-47.1-1993z"/>
</g>
</svg>
