<svg xmlns="http://www.w3.org/2000/svg" xmlns:xlink="http://www.w3.org/1999/xlink" width="352.085" height="125.84" viewBox="0 0 352.085 125.84">
  <defs>
    <linearGradient id="linear-gradient" x1="-3.479" y1="1.139" x2="-2.375" y2="1.139" gradientUnits="objectBoundingBox">
      <stop offset="0" stop-color="#362ce1"/>
      <stop offset="0" stop-color="#194390"/>
      <stop offset="0.057" stop-color="#164c9b"/>
      <stop offset="0.285" stop-color="#0c6ec6"/>
      <stop offset="0.492" stop-color="#0586e5"/>
      <stop offset="0.666" stop-color="#0195f8"/>
      <stop offset="0.788" stop-color="#009bff"/>
    </linearGradient>
  </defs>
  <g id="Grupo_127" data-name="Grupo 127" transform="translate(-3736.757 658.439)">
    <path id="Trazado_235" data-name="Trazado 235" d="M3981.835-590.094h-4.321c-1.127,0-2.254-.028-3.379.011a1.137,1.137,0,0,1-1.227-.752q-3.174-6.85-6.4-13.678-2.236-4.765-4.49-9.525c-.081-.172-.2-.33-.309-.52-.494.14-.569.571-.737.9q-3.55,6.946-7.081,13.9c-1.488,2.92-3,5.833-4.458,8.766a1.382,1.382,0,0,1-1.437.915c-2.218-.049-4.44-.015-6.66-.02-.29,0-.58-.029-1.024-.053.184-.417.309-.743.465-1.051q6.058-11.912,12.122-23.819,3.538-6.95,7.078-13.9c.044-.088.088-.179.134-.267a1.821,1.821,0,0,1,2.482-1.091,1.481,1.481,0,0,1,.685.76c.889,1.814,1.746,3.643,2.609,5.469q3.987,8.445,7.972,16.889,3.837,8.131,7.669,16.264C3981.626-590.692,3981.692-590.475,3981.835-590.094Z" transform="translate(107.007 14.729)" fill="#009bff"/>
    <path id="Trazado_236" data-name="Trazado 236" d="M3842.507-590.97V-630.2a7.048,7.048,0,0,1,.853-.1c4.774-.006,9.548-.064,14.321.012a11.157,11.157,0,0,1,10.852,8.823,11.249,11.249,0,0,1-6.156,12.656c-.416.2-.836.386-1.38.635,2.616,5.764,5.3,11.432,7.913,17.146a29.223,29.223,0,0,1-5.911.093c-.717-1.532-1.451-3.088-2.177-4.649-1.61-3.453-3.228-6.9-4.812-10.364a4.018,4.018,0,0,1-.335-1.52c-.041-1.623-.019-3.248-.014-4.871,0-.323.028-.645.05-1.109.648,0,1.234-.021,1.819,0a5.56,5.56,0,0,0,5.536-4.841,5.626,5.626,0,0,0-4.588-6.229,8.482,8.482,0,0,0-1.286-.113q-4.025-.016-8.054,0c-.29,0-.582.043-.983.073v33.593Z" transform="translate(55.591 14.776)" fill="#aaa"/>
    <path id="Trazado_237" data-name="Trazado 237" d="M3882.133-607.674v16.731h-5.543c-.215-.691-.279-37.913-.059-39.259a5.775,5.775,0,0,1,.648-.069q5.868,0,11.733.006a11.289,11.289,0,0,1,10.766,8.689,11.2,11.2,0,0,1-9.713,13.765c-2.168.209-4.368.1-6.552.137C3883.026-607.668,3882.639-607.674,3882.133-607.674Zm.049-5.842a1.3,1.3,0,0,0,.292.115c2.185.008,4.375.12,6.55-.014a5.508,5.508,0,0,0,5.25-5.852,5.59,5.59,0,0,0-5.719-5.311c-1.785.081-3.575.012-5.363.018-.321,0-.639.038-1.009.061Z" transform="translate(73.405 14.808)" fill="#aaa"/>
    <path id="Trazado_238" data-name="Trazado 238" d="M3829.194-624.6h-11.665v-5.634H3846.5v5.636h-11.584c-.06,2.87-.02,5.639-.027,8.408-.008,2.815,0,5.631,0,8.446v16.657a24.864,24.864,0,0,1-5.688.046Z" transform="translate(42.46 14.828)" fill="#aaa"/>
    <path id="Trazado_239" data-name="Trazado 239" d="M3898.12-630.238h5.514v33.615c1.4.055,2.679.02,3.956.026,1.292.006,2.584,0,3.875,0h7.8v5.578h-21.119C3897.932-591.838,3897.9-629.158,3898.12-630.238Z" transform="translate(84.747 14.825)" fill="#aaa"/>
    <path id="Trazado_240" data-name="Trazado 240" d="M3865.906-630.229h5.457c.211.712.31,36.953.105,39.108a25.408,25.408,0,0,1-5.562.056Z" transform="translate(67.891 14.83)" fill="#aaa"/>
    <path id="Trazado_241" data-name="Trazado 241" d="M3918.146-624.665v-5.427c.688-.214,23.975-.276,25.242-.058v5.389a1.146,1.146,0,0,1-.085.094.165.165,0,0,1-.08.052,3.55,3.55,0,0,1-.49.056q-12.129,0-24.258-.011A1.428,1.428,0,0,1,3918.146-624.665Z" transform="translate(95.354 14.8)" fill="#aaa"/>
    <path id="Trazado_242" data-name="Trazado 242" d="M3943.184-608.049v5.512H3918.15v-5.47C3918.835-608.223,3941.989-608.278,3943.184-608.049Z" transform="translate(95.355 26.412)" fill="#aaa"/>
    <path id="Trazado_243" data-name="Trazado 243" d="M3918.107-614.093c0-1.6,0-3.16,0-4.716,0-.229.027-.459.041-.679.746-.211,19.318-.249,20.393-.035v5.395C3937.8-613.921,3919.346-613.876,3918.107-614.093Z" transform="translate(95.332 20.383)" fill="#aaa"/>
    <path id="Trazado_244" data-name="Trazado 244" d="M3797.706-553.7l27.848-16.078a16.706,16.706,0,0,0,8.353-14.47V-616.4a16.706,16.706,0,0,0-8.353-14.468l-27.848-16.079a16.708,16.708,0,0,0-16.707,0l-27.849,16.079A16.706,16.706,0,0,0,3744.8-616.4v32.157a16.706,16.706,0,0,0,8.353,14.47L3781-553.7A16.707,16.707,0,0,0,3797.706-553.7Z" transform="translate(4.225 4.863)" fill="#6cf"/>
    <path id="Trazado_245" data-name="Trazado 245" d="M3841.764-557.789a17.131,17.131,0,0,0,8.565-14.836v-45.789a17.134,17.134,0,0,0-8.565-14.837l-39.654-22.893a17.132,17.132,0,0,0-17.132,0l-39.654,22.893a17.134,17.134,0,0,0-8.567,14.837v45.789a17.132,17.132,0,0,0,8.567,14.836l39.654,22.894a17.131,17.131,0,0,0,17.132,0Zm-53.036,16.4-39.654-22.893a9.664,9.664,0,0,1-4.817-8.344v-45.787a9.663,9.663,0,0,1,4.817-8.342l39.653-22.893a9.666,9.666,0,0,1,9.633,0l39.654,22.894a9.661,9.661,0,0,1,4.815,8.342v45.787a9.662,9.662,0,0,1-4.815,8.344l-39.654,22.893A9.66,9.66,0,0,1,3788.728-541.39Z" transform="translate(0 0)" fill="#cfd7e2"/>
    <path id="Trazado_246" data-name="Trazado 246" d="M3780.513-641.471l-24.133,13.932a11.594,11.594,0,0,0-5.8,10.041v27.867a11.592,11.592,0,0,0,5.8,10.04l24.133,13.933a11.589,11.589,0,0,0,11.594,0l24.133-13.933a11.6,11.6,0,0,0,5.8-10.04V-617.5a11.6,11.6,0,0,0-5.8-10.041l-24.133-13.932A11.589,11.589,0,0,0,3780.513-641.471Z" transform="translate(7.268 8.103)" fill="url(#linear-gradient)"/>
    <g id="Grupo_77" data-name="Grupo 77" transform="translate(3772.246 -620.472)">
      <path id="Trazado_247" data-name="Trazado 247" d="M3802.681-592.116h-4.439c-1.158,0-2.316-.028-3.473.011a1.168,1.168,0,0,1-1.26-.772q-3.261-7.039-6.573-14.055-2.3-4.9-4.613-9.787c-.084-.177-.2-.339-.319-.534-.507.143-.586.586-.758.923q-3.647,7.136-7.275,14.282c-1.529,3-3.077,5.994-4.581,9.009a1.421,1.421,0,0,1-1.475.941c-2.281-.052-4.564-.017-6.845-.02-.3,0-.595-.03-1.051-.056.188-.427.316-.763.478-1.08q6.225-12.239,12.455-24.475,3.636-7.14,7.271-14.282c.048-.092.092-.183.139-.273a1.87,1.87,0,0,1,2.551-1.121,1.516,1.516,0,0,1,.7.781c.913,1.863,1.794,3.742,2.68,5.619q4.1,8.678,8.193,17.355,3.941,8.355,7.879,16.712C3802.467-592.731,3802.534-592.509,3802.681-592.116Z" transform="translate(-3760.018 633.554)" fill="#fff"/>
      <path id="Trazado_248" data-name="Trazado 248" d="M3785.8-600.476h-1.828c-.476,0-.953-.011-1.429,0a.481.481,0,0,1-.518-.317q-1.341-2.9-2.7-5.784-.946-2.016-1.9-4.028c-.035-.073-.082-.14-.131-.221-.209.06-.241.241-.311.38q-1.5,2.938-2.995,5.878c-.628,1.236-1.267,2.467-1.886,3.707a.581.581,0,0,1-.607.388c-.938-.021-1.878-.006-2.816-.008-.122,0-.246-.012-.434-.023.078-.177.131-.314.2-.445q2.562-5.037,5.126-10.073l2.994-5.877c.018-.038.037-.076.056-.113a.771.771,0,0,1,1.05-.462.628.628,0,0,1,.29.322c.376.767.739,1.541,1.1,2.313q1.686,3.57,3.372,7.142,1.622,3.44,3.243,6.878C3785.716-600.728,3785.743-600.636,3785.8-600.476Z" transform="translate(-3755.693 641.978)" fill="#fff"/>
    </g>
  </g>
</svg>
