<?xml version="1.0" encoding="utf-8"?>
<!-- Generator: Adobe Illustrator 25.4.1, SVG Export Plug-In . SVG Version: 6.00 Build 0)  -->
<svg version="1.1" id="Capa_1" xmlns="http://www.w3.org/2000/svg" xmlns:xlink="http://www.w3.org/1999/xlink" x="0px" y="0px"
	 viewBox="0 0 352.1 116" style="enable-background:new 0 0 352.1 116;" xml:space="preserve">
<style type="text/css">
	.st0{fill:#009BFF;}
	.st1{fill:#444647;}
	.st2{fill:#66CCFF;}
	.st3{fill:url(#SVGID_1_);}
	.st4{fill:#FFFFFF;}
	.st5{fill:#2DCCFF;}
</style>
<path class="st0" d="M352.1,78.1c-1.5,0-2.8,0-4.2,0c-1.1,0-2.2,0-3.3,0c-0.6,0-0.9-0.2-1.2-0.7c-2-4.4-4.1-8.8-6.2-13.2
	c-1.4-3.1-2.9-6.2-4.3-9.2c-0.1-0.2-0.2-0.3-0.3-0.5c-0.5,0.1-0.6,0.6-0.7,0.9c-2.3,4.5-4.6,9-6.9,13.5c-1.4,2.8-2.9,5.7-4.3,8.5
	c-0.3,0.6-0.7,0.9-1.4,0.9c-2.1,0-4.3,0-6.5,0c-0.3,0-0.6,0-1-0.1c0.2-0.4,0.3-0.7,0.5-1c3.9-7.7,7.8-15.4,11.7-23.1
	c2.3-4.5,4.6-9,6.9-13.5c0-0.1,0.1-0.2,0.1-0.3c0.6-1.1,1.2-1.4,2.4-1.1c0.3,0.1,0.5,0.4,0.7,0.7c0.9,1.8,1.7,3.5,2.5,5.3
	c2.6,5.5,5.1,10.9,7.7,16.4c2.5,5.3,5,10.5,7.4,15.8C351.9,77.6,351.9,77.8,352.1,78.1z"/>
<path class="st1" d="M167.3,77.3c0-12.7,0-25.3,0-38c0.3,0,0.6-0.1,0.8-0.1c4.6,0,9.2-0.1,13.9,0c5.2,0.1,9.4,3.6,10.5,8.5
	c1.1,5-1.3,10.1-6,12.3c-0.4,0.2-0.8,0.4-1.3,0.6c2.5,5.6,5.1,11.1,7.7,16.6c-0.8,0.2-4.4,0.3-5.7,0.1c-0.7-1.5-1.4-3-2.1-4.5
	c-1.6-3.3-3.1-6.7-4.7-10c-0.2-0.4-0.3-1-0.3-1.5c0-1.6,0-3.1,0-4.7c0-0.3,0-0.6,0-1.1c0.6,0,1.2,0,1.8,0c2.5,0.1,5-1.9,5.4-4.7
	c0.4-2.8-1.6-5.6-4.4-6c-0.4-0.1-0.8-0.1-1.2-0.1c-2.6,0-5.2,0-7.8,0c-0.3,0-0.6,0-1,0.1c0,10.9,0,21.7,0,32.5
	C170.9,77.3,169.2,77.3,167.3,77.3z"/>
<path class="st1" d="M223,61.2c0,5.5,0,10.8,0,16.2c-1.9,0-3.6,0-5.4,0c-0.2-0.7-0.3-36.7-0.1-38c0.2,0,0.4-0.1,0.6-0.1
	c3.8,0,7.6,0,11.4,0c4.9,0,9.3,3.6,10.4,8.4c1.5,6.4-2.9,12.7-9.4,13.3c-2.1,0.2-4.2,0.1-6.3,0.1C223.8,61.2,223.4,61.2,223,61.2z
	 M223,55.5c0.2,0.1,0.2,0.1,0.3,0.1c2.1,0,4.2,0.1,6.3,0c3.1-0.2,5.3-2.7,5.1-5.7c-0.2-3.3-3.1-5.3-5.5-5.1c-1.7,0.1-3.5,0-5.2,0
	c-0.3,0-0.6,0-1,0.1C223,48.5,223,52,223,55.5z"/>
<path class="st1" d="M141.7,44.8c-3.9,0-7.5,0-11.3,0c0-1.8,0-3.6,0-5.5c9.4,0,18.7,0,28.1,0c0,1.8,0,3.6,0,5.5c-3.7,0-7.4,0-11.2,0
	c-0.1,2.8,0,5.5,0,8.1c0,2.7,0,5.5,0,8.2c0,2.7,0,5.4,0,8.1c0,2.7,0,5.4,0,8c-0.8,0.2-4.4,0.2-5.5,0
	C141.7,66.5,141.7,55.7,141.7,44.8z"/>
<path class="st1" d="M249.4,39.3c1.8,0,3.5,0,5.3,0c0,10.8,0,21.6,0,32.6c1.4,0.1,2.6,0,3.8,0c1.3,0,2.5,0,3.8,0s2.5,0,3.8,0
	c1.2,0,2.5,0,3.8,0c0,1.8,0,3.6,0,5.4c-6.8,0-13.7,0-20.5,0C249.2,76.5,249.2,40.4,249.4,39.3z"/>
<path class="st1" d="M201.9,39.4c1.8,0,3.5,0,5.3,0c0.2,0.7,0.3,35.8,0.1,37.9c-0.7,0.2-4.2,0.2-5.4,0.1
	C201.9,64.7,201.9,52,201.9,39.4z"/>
<path class="st1" d="M279.1,44.7c0-1.8,0-3.5,0-5.3c0.7-0.2,23.2-0.3,24.5-0.1c0,1.7,0,3.5,0,5.2c0,0-0.1,0.1-0.1,0.1
	c0,0,0,0-0.1,0.1c-0.2,0-0.3,0.1-0.5,0.1c-7.8,0-15.7,0-23.5,0C279.3,44.8,279.2,44.8,279.1,44.7z"/>
<path class="st1" d="M303.4,72.1c0,1.8,0,3.6,0,5.3c-8.1,0-16.1,0-24.2,0c0-1.8,0-3.5,0-5.3C279.8,71.9,302.2,71.8,303.4,72.1z"/>
<path class="st1" d="M279,60.4c0-1.6,0-3.1,0-4.6c0-0.2,0-0.4,0-0.7c0.7-0.2,18.7-0.2,19.8,0c0,1.7,0,3.5,0,5.2
	C298.1,60.5,280.2,60.6,279,60.4z"/>
<path class="st2" d="M63.5,105.3l32.2-18.6c3.4-2,5.5-5.6,5.5-9.5V40.1c0-3.9-2.1-7.5-5.5-9.5L63.5,12c-3.4-2-7.6-2-11,0L20.3,30.6
	c-3.4,2-5.5,5.6-5.5,9.5v37.2c0,3.9,2.1,7.5,5.5,9.5l32.2,18.6C55.9,107.3,60.1,107.3,63.5,105.3z"/>
<linearGradient id="SVGID_1_" gradientUnits="userSpaceOnUse" x1="-256.3222" y1="-1556.7278" x2="-178.752" y2="-1556.7278" gradientTransform="matrix(0.866 -0.5 0.5 0.866 1024.7892 1298.0663)">
	<stop  offset="0" style="stop-color:#362CE1"/>
	<stop  offset="0" style="stop-color:#194390"/>
	<stop  offset="5.663273e-02" style="stop-color:#164C9C"/>
	<stop  offset="0.2854" style="stop-color:#0D6EC6"/>
	<stop  offset="0.4917" style="stop-color:#0687E5"/>
	<stop  offset="0.6663" style="stop-color:#0296F8"/>
	<stop  offset="0.7884" style="stop-color:#009BFF"/>
</linearGradient>
<path class="st3" d="M54.2,20.9l-27,15.6c-2.4,1.4-3.8,3.9-3.8,6.6v31.2c0,2.7,1.4,5.2,3.8,6.6l27,15.6c2.4,1.4,5.2,1.4,7.6,0
	l27-15.6c2.4-1.4,3.8-3.9,3.8-6.6V43.1c0-2.7-1.4-5.2-3.8-6.6l-27-15.6C59.5,19.5,56.6,19.5,54.2,20.9z"/>
<g>
	<path class="st4" d="M78.7,74.6c-1.5,0-2.9,0-4.3,0c-1.1,0-2.2,0-3.4,0c-0.6,0-1-0.2-1.2-0.7c-2.1-4.5-4.2-9.1-6.4-13.6
		c-1.5-3.2-3-6.3-4.5-9.5c-0.1-0.2-0.2-0.3-0.3-0.5c-0.5,0.1-0.6,0.6-0.7,0.9c-2.4,4.6-4.7,9.2-7,13.8c-1.5,2.9-3,5.8-4.4,8.7
		c-0.3,0.6-0.7,0.9-1.4,0.9c-2.2,0-4.4,0-6.6,0c-0.3,0-0.6,0-1-0.1c0.2-0.4,0.3-0.7,0.5-1c4-7.9,8-15.8,12.1-23.7
		c2.3-4.6,4.7-9.2,7-13.8c0-0.1,0.1-0.2,0.1-0.3c0.6-1.1,1.3-1.5,2.5-1.1c0.3,0.1,0.5,0.5,0.7,0.8c0.9,1.8,1.7,3.6,2.6,5.4
		c2.6,5.6,5.3,11.2,7.9,16.8c2.5,5.4,5.1,10.8,7.6,16.2C78.5,74,78.6,74.2,78.7,74.6z"/>
	<path class="st4" d="M66.5,74.6c-0.6,0-1.2,0-1.8,0c-0.5,0-0.9,0-1.4,0c-0.2,0-0.4-0.1-0.5-0.3c-0.9-1.9-1.7-3.7-2.6-5.6
		c-0.6-1.3-1.2-2.6-1.8-3.9c0-0.1-0.1-0.1-0.1-0.2c-0.2,0.1-0.2,0.2-0.3,0.4c-1,1.9-1.9,3.8-2.9,5.7c-0.6,1.2-1.2,2.4-1.8,3.6
		c-0.1,0.3-0.3,0.4-0.6,0.4c-0.9,0-1.8,0-2.7,0c-0.1,0-0.2,0-0.4,0c0.1-0.2,0.1-0.3,0.2-0.4c1.7-3.3,3.3-6.5,5-9.8
		c1-1.9,1.9-3.8,2.9-5.7c0,0,0-0.1,0.1-0.1c0.2-0.5,0.5-0.6,1-0.4c0.1,0,0.2,0.2,0.3,0.3c0.4,0.7,0.7,1.5,1.1,2.2
		c1.1,2.3,2.2,4.6,3.3,6.9c1,2.2,2.1,4.4,3.1,6.7C66.5,74.4,66.5,74.5,66.5,74.6z"/>
</g>
<path class="st5" d="M107.7,84.8c-0.8,1.4-1.9,2.6-3.4,3.5c0,0-17.6,11.3-23,14.4c-3.4,1.9-7,4.4-7.1,7.3c-0.1,2.5,0.6,4.5,1.7,3.9
	l32.1-19.4c2.6-1.5,4.6-3.7,6-6.2c1.4-2.5,2.2-5.4,2.2-8.4l-0.4-36.4c-0.1-1.3-1.3-0.6-3.5,0.6c-2.5,1.4-4.3,1.9-3.9,8.1
	c0.3,6.2,0.3,8.4,0.3,8.4L109,80c0,1.7-0.4,3.3-1.2,4.7L107.7,84.8z"/>
<path class="st5" d="M8.6,30.3c0.8-1.4,2-2.6,3.4-3.4c0,0,17.7-11.1,23.1-14.1c3.4-1.9,7-4.3,7.2-7.3C42.5,3,41.8,1,40.7,1.6
	l-32.3,19c-2.6,1.5-4.7,3.6-6.1,6.1C0.8,29.3,0,32.1,0,35.1l0,36.4c0,1.3,1.3,0.6,3.5-0.6c2.5-1.3,4.3-1.9,4-8.1
	c-0.3-6.2-0.3-8.4-0.3-8.4l0-19.3c0-1.7,0.4-3.3,1.3-4.7L8.6,30.3z"/>
</svg>
