<?xml version="1.0" encoding="utf-8"?>
<!-- Generator: Adobe Illustrator 25.4.1, SVG Export Plug-In . SVG Version: 6.00 Build 0)  -->
<svg version="1.1" id="Capa_1" xmlns="http://www.w3.org/2000/svg" xmlns:xlink="http://www.w3.org/1999/xlink" x="0px" y="0px"
	 viewBox="0 0 92 80" style="enable-background:new 0 0 92 80;" xml:space="preserve">
<style type="text/css">
	.st0{fill:#787878;}
	.st1{fill:none;}
	.st2{fill:#0094FF;}
</style>
<path id="Icon_awesome-laptop-code" class="st0" d="M42.6,40.6c0.3,0.3,0.9,0.3,1.2,0l0.6-0.6c0.3-0.3,0.3-0.9,0-1.2l-1.9-1.9
	l1.9-1.9c0.3-0.3,0.3-0.9,0-1.2l-0.6-0.6c-0.3-0.3-0.9-0.3-1.2,0l-3.1,3.1c-0.3,0.3-0.3,0.9,0,1.2L42.6,40.6L42.6,40.6z M47.7,40
	l0.6,0.6c0.3,0.3,0.9,0.3,1.2,0l3.1-3.1c0.3-0.3,0.3-0.9,0-1.2l-3.1-3.1c-0.3-0.3-0.9-0.3-1.2,0l-0.6,0.6c-0.3,0.3-0.3,0.9,0,1.2
	l1.9,1.9l-1.9,1.9C47.4,39.1,47.4,39.6,47.7,40L47.7,40z M62.2,48.8H49.3c0,0.9-0.7,1.7-1.7,1.7c0,0-0.1,0-0.1,0h-3.2
	c-0.9,0-1.7-0.8-1.7-1.7H29.9c-0.5,0-0.8,0.4-0.9,0.9v0.9c0,1.9,1.5,3.4,3.4,3.4h27.2c1.9,0,3.4-1.5,3.4-3.4v-0.9
	C63.1,49.2,62.7,48.8,62.2,48.8L62.2,48.8z M59.7,29.2c0-1.4-1.1-2.6-2.6-2.6H35c-1.4,0-2.6,1.1-2.6,2.6v17.9h27.2L59.7,29.2z
	 M56.2,43.7H35.8V30.1h20.4V43.7z"/>
<g id="Polígono_6" transform="translate(259 2159)">
	<path class="st1" d="M-196.9-2159c4.3,0,8.3,2.3,10.4,6l16.1,28c2.1,3.7,2.1,8.3,0,12l-16.1,28c-2.1,3.7-6.1,6-10.4,6h-32.1
		c-4.3,0-8.3-2.3-10.4-6l-16.1-28c-2.1-3.7-2.1-8.3,0-12l16.1-28c2.1-3.7,6.1-6,10.4-6H-196.9z"/>
	<path class="st2" d="M-229.1-2154c-2.5,0-4.8,1.3-6.1,3.5l-16.1,28c-1.2,2.2-1.2,4.8,0,7l16.1,28c1.2,2.2,3.6,3.5,6.1,3.5h32.1
		c2.5,0,4.8-1.3,6.1-3.5l16.1-28c1.2-2.2,1.2-4.8,0-7l-16.1-28c-1.2-2.2-3.6-3.5-6.1-3.5H-229.1 M-229.1-2159h32.1
		c4.3,0,8.3,2.3,10.4,6l16.1,28c2.1,3.7,2.1,8.3,0,12l-16.1,28c-2.1,3.7-6.1,6-10.4,6h-32.1c-4.3,0-8.3-2.3-10.4-6l-16.1-28
		c-2.1-3.7-2.1-8.3,0-12l16.1-28C-237.3-2156.7-233.4-2159-229.1-2159z"/>
</g>
</svg>
