<svg xmlns="http://www.w3.org/2000/svg" width="92" height="80" viewBox="0 0 92 80">
  <g id="Grupo_137" data-name="Grupo 137" transform="translate(-259 -2159)">
    <path id="Icon_awesome-laptop-code" data-name="Icon awesome-laptop-code" d="M13.574,13.926a.852.852,0,0,0,1.2,0l.6-.6a.852.852,0,0,0,0-1.2l-1.9-1.9,1.9-1.9a.852.852,0,0,0,0-1.2l-.6-.6a.852.852,0,0,0-1.2,0L10.468,9.616a.852.852,0,0,0,0,1.2l3.106,3.105Zm5.11-.6.6.6a.852.852,0,0,0,1.2,0L23.6,10.821a.852.852,0,0,0,0-1.2L20.49,6.512a.852.852,0,0,0-1.2,0l-.6.6a.852.852,0,0,0,0,1.2l1.9,1.9-1.9,1.9a.852.852,0,0,0,0,1.2Zm14.528,8.817h-12.9a1.678,1.678,0,0,1-1.743,1.7H15.328a1.807,1.807,0,0,1-1.744-1.7H.852A.854.854,0,0,0,0,22.993v.852a3.416,3.416,0,0,0,3.406,3.406h27.25a3.416,3.416,0,0,0,3.406-3.406v-.852A.854.854,0,0,0,33.212,22.141ZM30.657,2.555A2.562,2.562,0,0,0,28.1,0H5.961A2.562,2.562,0,0,0,3.406,2.555V20.438h27.25ZM27.25,17.032H6.813V3.406H27.25Z" transform="translate(288 2185.654)" fill="#fff"/>
    <g id="Polígono_6" data-name="Polígono 6" transform="translate(259 2159)" fill="none">
      <path d="M62.058,0a12,12,0,0,1,10.4,6.018l16.1,28a12,12,0,0,1,0,11.963l-16.1,28A12,12,0,0,1,62.058,80H29.942a12,12,0,0,1-10.4-6.018l-16.1-28a12,12,0,0,1,0-11.963l16.1-28A12,12,0,0,1,29.942,0Z" stroke="none"/>
      <path d="M 29.94233322143555 5 C 27.44439697265625 5 25.11913299560547 6.34521484375 23.87398529052734 8.51068115234375 L 7.77398681640625 36.51071548461914 C 6.536415100097656 38.66298294067383 6.536415100097656 41.33701705932617 7.77398681640625 43.48929977416992 L 23.87398529052734 71.48928070068359 C 25.11913299560547 73.65476989746094 27.44438171386719 75 29.94231796264648 75 L 62.05766677856445 75 C 64.55560302734375 75 66.88086700439453 73.65476989746094 68.12601470947266 71.48930358886719 L 84.22601318359375 43.48928451538086 C 85.46358489990234 41.33701705932617 85.46358489990234 38.66298294067383 84.22601318359375 36.51070022583008 L 68.12601470947266 8.510719299316406 C 66.88086700439453 6.345230102539062 64.55560302734375 5 62.05766677856445 5 L 29.94233322143555 5 M 29.94233322143555 0 L 62.05766677856445 0 C 66.3524169921875 0 70.31973266601562 2.295196533203125 72.46054840087891 6.018348693847656 L 88.560546875 34.01834869384766 C 90.69004821777344 37.72181701660156 90.69004821777344 42.27818298339844 88.560546875 45.98165130615234 L 72.46054840087891 73.98165130615234 C 70.31973266601562 77.70480346679688 66.3524169921875 80 62.05766677856445 80 L 29.94231796264648 80 C 25.64756774902344 80 21.68026733398438 77.70480346679688 19.53945159912109 73.98165130615234 L 3.439453125 45.98165130615234 C 1.309951782226562 42.27816772460938 1.309951782226562 37.72181701660156 3.439453125 34.01834869384766 L 19.53945159912109 6.018333435058594 C 21.68026733398438 2.295196533203125 25.6475830078125 0 29.94233322143555 0 Z" stroke="none" fill="#0094ff"/>
    </g>
  </g>
</svg>
