<?xml version="1.0" encoding="utf-8"?>
<!-- Generator: Adobe Illustrator 25.4.1, SVG Export Plug-In . SVG Version: 6.00 Build 0)  -->
<svg version="1.1" id="Capa_1" xmlns="http://www.w3.org/2000/svg" xmlns:xlink="http://www.w3.org/1999/xlink" x="0px" y="0px"
	 viewBox="0 0 92 80" style="enable-background:new 0 0 92 80;" xml:space="preserve">
<style type="text/css">
	.st0{fill:#787878;}
	.st1{fill:none;}
	.st2{fill:#0094FF;}
</style>
<path id="Icon_awesome-brain" class="st0" d="M40.5,23.3c-1.9,0-3.5,1.3-4,3.1c-0.1,0-0.1,0-0.1,0c-2.3,0-4.2,1.9-4.2,4.2
	c0,0.3,0,0.6,0.1,0.9c-2.6,1.1-3.9,4.1-2.9,6.7c0.1,0.1,0.1,0.2,0.2,0.4c-2.5,1.4-3.4,4.6-1.9,7.1c0.6,1,1.5,1.8,2.5,2.2
	c-0.1,0.3-0.1,0.6-0.1,0.9c0,2.6,2.1,4.7,4.7,4.7c0,0,0,0,0,0c0.3,0,0.5,0,0.8-0.1c0.8,2.4,3.5,3.8,5.9,3c1.9-0.6,3.2-2.4,3.2-4.4
	V27.5C44.6,25.2,42.8,23.4,40.5,23.3z M64.4,43.1c0-1.9-1-3.6-2.6-4.5c0.4-0.7,0.5-1.5,0.5-2.3c0-2.1-1.3-4-3.2-4.8
	c0.5-2.2-0.8-4.4-3.1-5c-0.3-0.1-0.7-0.1-1-0.1c-0.1,0-0.1,0-0.1,0c-0.6-2.2-2.8-3.6-5-3c-1.8,0.5-3.1,2.1-3.1,4v24.4
	c0,2.6,2.1,4.7,4.7,4.7c2,0,3.8-1.3,4.4-3.2c0.3,0,0.5,0.1,0.8,0.1c2.6,0,4.7-2.1,4.7-4.7c0,0,0,0,0,0c0-0.3,0-0.6-0.1-0.9
	C63.1,47.1,64.4,45.2,64.4,43.1z"/>
<g id="Polígono_2" transform="translate(259 1822)">
	<path class="st1" d="M-196.9-1822c4.3,0,8.3,2.3,10.4,6l16.1,28c2.1,3.7,2.1,8.3,0,12l-16.1,28c-2.1,3.7-6.1,6-10.4,6h-32.1
		c-4.3,0-8.3-2.3-10.4-6l-16.1-28c-2.1-3.7-2.1-8.3,0-12l16.1-28c2.1-3.7,6.1-6,10.4-6H-196.9z"/>
	<path class="st2" d="M-229.1-1817c-2.5,0-4.8,1.3-6.1,3.5l-16.1,28c-1.2,2.2-1.2,4.8,0,7l16.1,28c1.2,2.2,3.6,3.5,6.1,3.5h32.1
		c2.5,0,4.8-1.3,6.1-3.5l16.1-28c1.2-2.2,1.2-4.8,0-7l-16.1-28c-1.2-2.2-3.6-3.5-6.1-3.5H-229.1 M-229.1-1822h32.1
		c4.3,0,8.3,2.3,10.4,6l16.1,28c2.1,3.7,2.1,8.3,0,12l-16.1,28c-2.1,3.7-6.1,6-10.4,6h-32.1c-4.3,0-8.3-2.3-10.4-6l-16.1-28
		c-2.1-3.7-2.1-8.3,0-12l16.1-28C-237.3-1819.7-233.4-1822-229.1-1822z"/>
</g>
</svg>
