<svg xmlns="http://www.w3.org/2000/svg" width="92" height="80" viewBox="0 0 92 80">
  <g id="Grupo_133" data-name="Grupo 133" transform="translate(-259 -1822)">
    <path id="Icon_awesome-brain" data-name="Icon awesome-brain" d="M13.5,0a4.14,4.14,0,0,0-4.01,3.128c-.052,0-.091-.013-.143-.013A4.157,4.157,0,0,0,5.191,7.267a3.827,3.827,0,0,0,.11.908,5.146,5.146,0,0,0-2.686,7.066,5.172,5.172,0,0,0,.59,9.279,4.755,4.755,0,0,0-.091.915,4.669,4.669,0,0,0,4.672,4.672,4.4,4.4,0,0,0,.779-.078,4.661,4.661,0,0,0,9.084-1.479V4.153A4.157,4.157,0,0,0,13.5,0ZM37.375,19.726a5.164,5.164,0,0,0-2.615-4.484,5.107,5.107,0,0,0,.539-2.265,5.191,5.191,0,0,0-3.225-4.8,4.114,4.114,0,0,0-4.042-5.061c-.052,0-.1.013-.143.013a4.145,4.145,0,0,0-8.163,1.025v24.4A4.661,4.661,0,0,0,28.81,30.03a4.4,4.4,0,0,0,.779.078,4.669,4.669,0,0,0,4.672-4.672,4.755,4.755,0,0,0-.091-.915A5.191,5.191,0,0,0,37.375,19.726Z" transform="translate(286 1845.346)" fill="#fff"/>
    <g id="Polígono_2" data-name="Polígono 2" transform="translate(259 1822)" fill="none">
      <path d="M62.058,0a12,12,0,0,1,10.4,6.018l16.1,28a12,12,0,0,1,0,11.963l-16.1,28A12,12,0,0,1,62.058,80H29.942a12,12,0,0,1-10.4-6.018l-16.1-28a12,12,0,0,1,0-11.963l16.1-28A12,12,0,0,1,29.942,0Z" stroke="none"/>
      <path d="M 29.94233322143555 5 C 27.44439697265625 5 25.11913299560547 6.34521484375 23.87398529052734 8.51068115234375 L 7.77398681640625 36.51071548461914 C 6.536415100097656 38.66298294067383 6.536415100097656 41.33701705932617 7.77398681640625 43.48929977416992 L 23.87398529052734 71.48928070068359 C 25.11913299560547 73.65476989746094 27.44438171386719 75 29.94231796264648 75 L 62.05766677856445 75 C 64.55560302734375 75 66.88086700439453 73.65476989746094 68.12601470947266 71.48930358886719 L 84.22601318359375 43.48928451538086 C 85.46358489990234 41.33701705932617 85.46358489990234 38.66298294067383 84.22601318359375 36.51070022583008 L 68.12601470947266 8.510719299316406 C 66.88086700439453 6.345230102539062 64.55560302734375 5 62.05766677856445 5 L 29.94233322143555 5 M 29.94233322143555 0 L 62.05766677856445 0 C 66.3524169921875 0 70.31973266601562 2.295196533203125 72.46054840087891 6.018348693847656 L 88.560546875 34.01834869384766 C 90.69004821777344 37.72181701660156 90.69004821777344 42.27818298339844 88.560546875 45.98165130615234 L 72.46054840087891 73.98165130615234 C 70.31973266601562 77.70480346679688 66.3524169921875 80 62.05766677856445 80 L 29.94231796264648 80 C 25.64756774902344 80 21.68026733398438 77.70480346679688 19.53945159912109 73.98165130615234 L 3.439453125 45.98165130615234 C 1.309951782226562 42.27816772460938 1.309951782226562 37.72181701660156 3.439453125 34.01834869384766 L 19.53945159912109 6.018333435058594 C 21.68026733398438 2.295196533203125 25.6475830078125 0 29.94233322143555 0 Z" stroke="none" fill="#0094ff"/>
    </g>
  </g>
</svg>
